<svg width="253" height="35" viewBox="0 0 253 35" fill="none" xmlns="http://www.w3.org/2000/svg">
<path fill-rule="evenodd" clip-rule="evenodd" d="M25.205 5.68908V1.26998C25.205 0.918926 25.0605 0.598851 24.8334 0.3717C24.6011 0.14455 24.2811 0 23.9301 0H19.5167C19.1657 0 18.8457 0.14455 18.6186 0.3717C18.3863 0.604013 18.2469 0.918926 18.2469 1.26998V5.68392C18.2469 6.03497 18.3915 6.35504 18.6186 6.58219C18.8509 6.81451 19.1657 6.95389 19.5167 6.95389H23.9301C24.2811 6.95389 24.6011 6.80934 24.8282 6.58219C25.0605 6.35504 25.1999 6.03497 25.1999 5.68392M34.2382 25.1982V21.6464C34.2382 21.3521 34.1194 21.0837 33.9285 20.8927C33.7375 20.7016 33.4691 20.5829 33.1748 20.5829H29.6184C29.3241 20.5829 29.0557 20.7016 28.8647 20.8927C28.6737 21.0837 28.555 21.3521 28.555 21.6464V25.2033C28.555 25.4976 28.6737 25.7609 28.8647 25.9571C29.0557 26.1481 29.3241 26.272 29.6184 26.2668H33.1697C33.4639 26.2668 33.7271 26.1481 33.9233 25.9571C34.1143 25.7661 34.2382 25.4976 34.233 25.2033L34.2382 25.1982ZM24.565 15.1468V11.5898C24.565 11.2956 24.4462 11.0323 24.2501 10.8361C24.0591 10.6451 23.7907 10.5263 23.4965 10.5263H19.9452C19.6509 10.5263 19.3877 10.6451 19.1915 10.8361C19.0006 11.0271 18.8818 11.2956 18.8818 11.5898V15.1468C18.8818 15.4411 19.0006 15.7043 19.1915 15.9005C19.3825 16.0915 19.6509 16.2103 19.9452 16.2103H23.4965C23.7907 16.2103 24.0591 16.0915 24.2501 15.9005C24.4411 15.7095 24.565 15.4411 24.565 15.1468ZM14.3395 5.41547V1.8585C14.3395 1.56424 14.2207 1.30095 14.0297 1.10478C13.8388 0.913763 13.5703 0.795026 13.2761 0.795026H9.71965C9.42543 0.795026 9.16218 0.913763 8.96603 1.10478C8.77505 1.29579 8.65632 1.56424 8.65632 1.8585V5.41547C8.65632 5.70973 8.77505 5.97302 8.96603 6.16919C9.15702 6.36021 9.42543 6.48411 9.71965 6.48411H13.271C13.5652 6.48411 13.8336 6.36537 14.0246 6.16919C14.2156 5.97818 14.3395 5.70973 14.3395 5.41547ZM23.9868 24.651V21.8787C23.9868 21.6361 23.8888 21.4192 23.7288 21.2592C23.5687 21.0992 23.3519 21.0011 23.1093 21.0011H20.3375C20.0949 21.0011 19.8781 21.0992 19.718 21.2592C19.558 21.4192 19.46 21.6361 19.46 21.8787V24.651C19.46 24.8936 19.558 25.1104 19.718 25.2705C19.8781 25.4305 20.0949 25.5286 20.3375 25.5286H23.1093C23.3519 25.5286 23.5687 25.4305 23.7288 25.2705C23.8888 25.1104 23.9868 24.8936 23.9868 24.651ZM13.7613 14.9145V12.1422C13.7613 11.8996 13.6633 11.6827 13.5032 11.5227C13.3432 11.3627 13.1264 11.2646 12.8838 11.2646H10.1119C9.86935 11.2646 9.65255 11.3627 9.49253 11.5227C9.33252 11.6827 9.23444 11.8996 9.23444 12.1422V14.9145C9.23444 15.1571 9.33252 15.3739 9.49253 15.534C9.65255 15.694 9.86935 15.7921 10.1119 15.7921H12.8838C13.1264 15.7921 13.3432 15.694 13.5032 15.534C13.6633 15.3739 13.7613 15.1571 13.7613 14.9145ZM23.5481 34.2429V32.0643C23.5481 31.863 23.4655 31.6771 23.3313 31.5429C23.1971 31.4087 23.0164 31.3261 22.81 31.3261H20.6317C20.4304 31.3261 20.2445 31.4087 20.1155 31.5429C19.9813 31.6771 19.8987 31.8578 19.8987 32.0592V34.2429C19.8987 34.4442 19.9813 34.6301 20.1155 34.7643C20.2497 34.8985 20.4304 34.9811 20.6368 34.9811H22.8203C23.0216 34.9811 23.2074 34.8985 23.3365 34.7643C23.4707 34.6352 23.5533 34.4494 23.5533 34.2481L23.5481 34.2429ZM13.3226 24.5116V22.333C13.3226 22.1317 13.24 21.9458 13.1058 21.8167C12.9716 21.6825 12.7909 21.5999 12.5844 21.5999H10.401C10.1997 21.5999 10.0139 21.6825 9.88483 21.8167C9.75062 21.951 9.66804 22.1317 9.66804 22.333V24.5116C9.66804 24.7129 9.75062 24.8988 9.88483 25.033C10.019 25.1672 10.1997 25.2498 10.4062 25.2498H12.5844C12.7858 25.2498 12.9716 25.1672 13.1006 25.033C13.2348 24.8988 13.3174 24.7181 13.3174 24.5167L13.3226 24.5116ZM3.64939 14.4602V12.2764C3.64939 12.0751 3.5668 11.8892 3.43259 11.755C3.29838 11.6208 3.11772 11.5382 2.91125 11.5382H0.732974C0.531664 11.5382 0.34584 11.6208 0.216795 11.755C0.0825887 11.8944 0 12.0803 0 12.2816V14.4653C0 14.6667 0.0825887 14.8525 0.216795 14.9868C0.351002 15.121 0.531664 15.2036 0.738136 15.2036H2.91641C3.11772 15.2036 3.30355 15.121 3.43775 14.9868C3.5668 14.8525 3.64939 14.6718 3.65455 14.4705L3.64939 14.4602ZM12.9871 34.1758V32.4463C12.9871 32.276 12.9148 32.1159 12.8064 32.0024C12.6928 31.8888 12.538 31.8217 12.3625 31.8217H10.6333C10.463 31.8217 10.3029 31.894 10.1945 32.0024C10.081 32.1159 10.0087 32.2708 10.0087 32.4463V34.1758C10.0087 34.3461 10.081 34.5062 10.1894 34.6198C10.3029 34.7333 10.4578 34.8004 10.6281 34.8056H12.3573C12.5277 34.8056 12.6877 34.7333 12.7961 34.6198C12.9096 34.5062 12.9767 34.3513 12.9767 34.1809L12.9871 34.1758ZM3.31387 24.1295V22.4001C3.31387 22.2297 3.24161 22.0697 3.13321 21.9561C3.01965 21.8426 2.86479 21.7754 2.68929 21.7754H0.960093C0.789754 21.7754 0.629739 21.8477 0.521341 21.9561C0.407782 22.0697 0.335516 22.2246 0.335516 22.4001V24.1295C0.335516 24.2999 0.407782 24.4599 0.516179 24.5735C0.629739 24.6871 0.784592 24.7542 0.954931 24.7594H2.68413C2.85447 24.7594 3.01449 24.6871 3.12288 24.5735C3.23644 24.4599 3.30355 24.3051 3.30355 24.1347L3.31387 24.1295ZM2.95254 33.7731V32.5341C2.95254 32.3947 2.89576 32.2657 2.80285 32.1727C2.70994 32.0798 2.58606 32.023 2.44153 32.023H1.2027C1.06333 32.023 0.934284 32.0798 0.846534 32.1727C0.753622 32.2657 0.696842 32.3896 0.696842 32.5289V33.7679C0.696842 33.9073 0.753622 34.0364 0.846534 34.1242C0.939446 34.2171 1.06333 34.2739 1.2027 34.2739H2.44153C2.5809 34.2739 2.70994 34.2171 2.79769 34.1242C2.8906 34.0312 2.94738 33.9073 2.94738 33.7679L2.95254 33.7731ZM34.8782 15.7353V11.3214C34.8782 10.9703 34.7337 10.6502 34.5066 10.4231C34.2743 10.1908 33.9594 10.0514 33.6084 10.0514H29.1951C28.8441 10.0514 28.5241 10.1959 28.2969 10.4231C28.0647 10.6554 27.9253 10.9703 27.9253 11.3214V15.7353C27.9253 16.0864 28.0698 16.4064 28.2969 16.6336C28.5292 16.8659 28.8441 17.0053 29.1951 17.0053H33.6084C33.9594 17.0053 34.2743 16.8607 34.5066 16.6336C34.7337 16.4064 34.8782 16.0864 34.8782 15.7353ZM34.8782 5.84396V1.43001C34.8782 1.07896 34.7337 0.758888 34.5066 0.531738C34.2795 0.304588 33.9594 0.160038 33.6084 0.160038H29.1951C28.8441 0.160038 28.5292 0.304588 28.2969 0.531738C28.0647 0.764051 27.9253 1.07896 27.9253 1.43001V5.84396C27.9253 6.19501 28.0698 6.51508 28.2969 6.74223C28.5292 6.97454 28.8441 7.11393 29.1951 7.11393H33.6084C33.9594 7.11393 34.2795 6.96938 34.5066 6.74223C34.7389 6.50992 34.8782 6.19501 34.8782 5.84396Z" fill="#C71F2E"/>
<path d="M233.045 28.5335V6.35023H245.758C247.931 6.35023 249.635 6.89746 250.863 7.99191C252.097 9.0812 252.716 10.5938 252.716 12.5194C252.716 14.1301 252.236 15.5034 251.271 16.6494C250.306 17.7955 249.036 18.5079 247.451 18.7919L253 28.5387H249.95L244.401 18.8332H235.801V28.5387H233.05L233.045 28.5335ZM235.796 16.2364H245.583C246.976 16.2364 248.029 15.9267 248.747 15.3123C249.464 14.6928 249.826 13.7946 249.826 12.602C249.826 11.4095 249.47 10.5319 248.747 9.88138C248.035 9.23091 247.028 8.90567 245.722 8.90567H235.796V16.2364ZM208.459 28.5335V6.35023H225.901V8.90051H211.21V15.4104H220.094V17.9607H211.21V25.9781H226.799V28.5284H208.459V28.5335ZM180.998 28.5335V6.35023H182.444L196.83 22.927V6.35023H199.602V28.5335H198.198L183.75 11.9567V28.5335H180.998ZM162.385 29.1169C159.066 29.1169 156.32 28.0224 154.157 25.8335C151.999 23.6446 150.91 20.8672 150.91 17.5012C150.91 14.1353 151.994 11.3424 154.167 9.15347C156.335 6.96457 159.076 5.87012 162.385 5.87012C165.694 5.87012 168.46 6.96457 170.644 9.16896C172.832 11.363 173.922 14.1405 173.922 17.5012C173.922 20.862 172.832 23.6498 170.659 25.8335C168.476 28.0224 165.73 29.1169 162.39 29.1169H162.385ZM162.385 26.5253C164.873 26.5253 166.938 25.6735 168.579 23.975C170.21 22.2766 171.026 20.1135 171.026 17.5012C171.026 14.889 170.21 12.7156 168.584 11.012C166.958 9.30835 164.888 8.46169 162.385 8.46169C159.882 8.46169 157.832 9.31867 156.191 11.0275C154.56 12.7362 153.744 14.8942 153.744 17.5012C153.744 20.1083 154.56 22.2766 156.191 23.975C157.832 25.6735 159.892 26.5253 162.385 26.5253ZM127.786 28.5335V6.30893H130.537V17.3773L143.261 6.30893H146.874L137.908 14.2024L148.237 28.5284H144.902L135.915 16.1125L130.532 20.6349V28.5284H127.78L127.786 28.5335ZM118.396 21.4609L120.605 23.1077C119.589 25.0333 118.19 26.5253 116.43 27.5578C114.659 28.5955 112.651 29.1169 110.401 29.1169C107.076 29.1169 104.336 28.0224 102.173 25.8335C100.01 23.6446 98.9311 20.8672 98.9311 17.5012C98.9311 14.1353 100.015 11.3424 102.188 9.15347C104.356 6.96457 107.097 5.87012 110.406 5.87012C112.455 5.87012 114.324 6.31409 116.006 7.21237C117.694 8.11064 119.072 9.39611 120.131 11.0533L117.818 12.7001C117.116 11.3785 116.115 10.3357 114.809 9.58712C113.493 8.83856 112.027 8.46169 110.406 8.46169C107.918 8.46169 105.853 9.31867 104.212 11.0275C102.581 12.7362 101.765 14.8942 101.765 17.5012C101.765 20.1083 102.581 22.2766 104.212 23.975C105.853 25.6735 107.913 26.5253 110.406 26.5253C112.15 26.5253 113.689 26.0917 115.051 25.2347C116.404 24.3777 117.519 23.1232 118.407 21.4609H118.396ZM75.987 28.5335V6.35023H93.4286V8.90051H78.7382V15.4104H87.6216V17.9607H78.7382V25.9781H94.3268V28.5284H75.987V28.5335ZM49.0527 28.5335V6.35023H61.7662C63.9393 6.35023 65.6427 6.89746 66.8712 7.99191C68.1049 9.0812 68.7243 10.5938 68.7243 12.5194C68.7243 14.1301 68.2443 15.5034 67.279 16.6494C66.3138 17.7955 65.044 18.5079 63.4593 18.7919L69.0082 28.5387H65.9576L60.4087 18.8332H51.8091V28.5387H49.0579L49.0527 28.5335ZM51.804 16.2364H61.5907C62.9844 16.2364 64.0374 15.9267 64.7549 15.3123C65.4724 14.6928 65.8337 13.7946 65.8337 12.602C65.8337 11.4095 65.4776 10.5319 64.7549 9.88138C64.0426 9.23091 63.036 8.90567 61.7301 8.90567H51.804V16.2364Z" fill="white"/>
</svg>
