<svg width="326" height="47" viewBox="0 0 326 47" fill="none" xmlns="http://www.w3.org/2000/svg">
<path fill-rule="evenodd" clip-rule="evenodd" d="M33.7079 7.60827V1.6984C33.7079 1.22892 33.5146 0.800871 33.2108 0.497092C32.9002 0.193314 32.4722 0 32.0028 0H26.1006C25.6312 0 25.2032 0.193314 24.8995 0.497092C24.5889 0.807775 24.4025 1.22892 24.4025 1.6984V7.60137C24.4025 8.07084 24.5958 8.49889 24.8995 8.80267C25.2101 9.11336 25.6312 9.29977 26.1006 9.29977H32.0028C32.4722 9.29977 32.9002 9.10645 33.2039 8.80267C33.5146 8.49889 33.7009 8.07084 33.7009 7.60137M45.7883 33.6987V28.9487C45.7883 28.5552 45.6295 28.1962 45.3741 27.9407C45.1187 27.6853 44.7597 27.5265 44.3662 27.5265H39.61C39.2165 27.5265 38.8576 27.6853 38.6021 27.9407C38.3467 28.1962 38.188 28.5552 38.188 28.9487V33.7056C38.188 34.0991 38.3467 34.4512 38.6021 34.7136C38.8576 34.969 39.2165 35.1347 39.61 35.1278H44.3593C44.7528 35.1278 45.1049 34.969 45.3672 34.7136C45.6226 34.4581 45.7883 34.0991 45.7814 33.7056L45.7883 33.6987ZM32.8519 20.2565V15.4996C32.8519 15.1061 32.6931 14.754 32.4308 14.4916C32.1754 14.2362 31.8164 14.0774 31.4229 14.0774H26.6736C26.2801 14.0774 25.9281 14.2362 25.6657 14.4916C25.4103 14.7471 25.2516 15.1061 25.2516 15.4996V20.2565C25.2516 20.65 25.4103 21.0021 25.6657 21.2645C25.9212 21.5199 26.2801 21.6787 26.6736 21.6787H31.4229C31.8164 21.6787 32.1754 21.5199 32.4308 21.2645C32.6862 21.009 32.8519 20.65 32.8519 20.2565ZM19.1768 7.24236V2.48546C19.1768 2.09193 19.018 1.73982 18.7626 1.47747C18.5072 1.22202 18.1483 1.06322 17.7548 1.06322H12.9985C12.6051 1.06322 12.253 1.22202 11.9907 1.47747C11.7353 1.73292 11.5765 2.09193 11.5765 2.48546V7.24236C11.5765 7.63589 11.7353 7.98799 11.9907 8.25035C12.2461 8.5058 12.6051 8.6715 12.9985 8.6715H17.7479C18.1414 8.6715 18.5003 8.5127 18.7557 8.25035C19.0111 7.9949 19.1768 7.63589 19.1768 7.24236ZM32.0787 32.9669V29.2594C32.0787 28.9349 31.9476 28.6449 31.7336 28.4309C31.5196 28.2169 31.2296 28.0857 30.9052 28.0857H27.1982C26.8738 28.0857 26.5839 28.2169 26.3699 28.4309C26.1559 28.6449 26.0247 28.9349 26.0247 29.2594V32.9669C26.0247 33.2914 26.1559 33.5813 26.3699 33.7954C26.5839 34.0094 26.8738 34.1406 27.1982 34.1406H30.9052C31.2296 34.1406 31.5196 34.0094 31.7336 33.7954C31.9476 33.5813 32.0787 33.2914 32.0787 32.9669ZM18.4037 19.9458V16.2383C18.4037 15.9139 18.2725 15.6239 18.0585 15.4099C17.8445 15.1958 17.5546 15.0647 17.2301 15.0647H13.5232C13.1987 15.0647 12.9088 15.1958 12.6948 15.4099C12.4808 15.6239 12.3497 15.9139 12.3497 16.2383V19.9458C12.3497 20.2703 12.4808 20.5603 12.6948 20.7743C12.9088 20.9883 13.1987 21.1195 13.5232 21.1195H17.2301C17.5546 21.1195 17.8445 20.9883 18.0585 20.7743C18.2725 20.5603 18.4037 20.2703 18.4037 19.9458ZM31.492 45.7946V42.8811C31.492 42.6118 31.3815 42.3633 31.202 42.1838C31.0225 42.0043 30.7809 41.8938 30.5048 41.8938H27.5917C27.3225 41.8938 27.074 42.0043 26.9014 42.1838C26.7219 42.3633 26.6115 42.6049 26.6115 42.8742V45.7946C26.6115 46.0639 26.7219 46.3124 26.9014 46.4919C27.0809 46.6714 27.3225 46.7819 27.5986 46.7819H30.5186C30.7878 46.7819 31.0364 46.6714 31.2089 46.4919C31.3884 46.3193 31.4989 46.0708 31.4989 45.8015L31.492 45.7946ZM17.8169 32.7805V29.867C17.8169 29.5977 17.7065 29.3491 17.527 29.1765C17.3475 28.997 17.1059 28.8866 16.8298 28.8866H13.9098C13.6405 28.8866 13.392 28.997 13.2194 29.1765C13.04 29.3561 12.9295 29.5977 12.9295 29.867V32.7805C12.9295 33.0497 13.04 33.2983 13.2194 33.4778C13.3989 33.6573 13.6405 33.7677 13.9167 33.7677H16.8298C17.099 33.7677 17.3475 33.6573 17.5201 33.4778C17.6996 33.2983 17.81 33.0566 17.81 32.7874L17.8169 32.7805ZM4.88049 19.3383V16.4178C4.88049 16.1486 4.77004 15.9 4.59056 15.7205C4.41108 15.541 4.16947 15.4306 3.89335 15.4306H0.980241C0.71102 15.4306 0.462508 15.541 0.28993 15.7205C0.11045 15.9069 0 16.1555 0 16.4248V19.3452C0 19.6144 0.11045 19.863 0.28993 20.0425C0.469411 20.222 0.71102 20.3324 0.987144 20.3324H3.90025C4.16947 20.3324 4.41799 20.222 4.59747 20.0425C4.77004 19.863 4.88049 19.6213 4.8874 19.3521L4.88049 19.3383ZM17.3682 45.7049V43.392C17.3682 43.1642 17.2716 42.9501 17.1266 42.7983C16.9747 42.6464 16.7676 42.5566 16.5329 42.5566H14.2204C13.9926 42.5566 13.7786 42.6533 13.6336 42.7983C13.4818 42.9501 13.3851 43.1573 13.3851 43.392V45.7049C13.3851 45.9327 13.4818 46.1467 13.6267 46.2986C13.7786 46.4505 13.9857 46.5402 14.2135 46.5472H16.526C16.7538 46.5472 16.9678 46.4505 17.1128 46.2986C17.2647 46.1467 17.3544 45.9396 17.3544 45.7118L17.3682 45.7049ZM4.43179 32.2696V29.9567C4.43179 29.7289 4.33515 29.5148 4.19018 29.363C4.03832 29.2111 3.83122 29.1213 3.59652 29.1213H1.28398C1.05617 29.1213 0.842179 29.218 0.697213 29.363C0.545345 29.5148 0.448702 29.722 0.448702 29.9567V32.2696C0.448702 32.4974 0.545345 32.7114 0.69031 32.8633C0.842179 33.0152 1.04927 33.105 1.27707 33.1119H3.58961C3.81742 33.1119 4.03141 33.0152 4.17638 32.8633C4.32825 32.7114 4.41799 32.5043 4.41799 32.2765L4.43179 32.2696ZM3.94857 45.1663V43.5094C3.94857 43.323 3.87264 43.1504 3.74838 43.0261C3.62413 42.9018 3.45845 42.8259 3.26517 42.8259H1.60842C1.42204 42.8259 1.24946 42.9018 1.13211 43.0261C1.00785 43.1504 0.931919 43.3161 0.931919 43.5025V45.1594C0.931919 45.3459 1.00785 45.5184 1.13211 45.6358C1.25636 45.7601 1.42204 45.836 1.60842 45.836H3.26517C3.45155 45.836 3.62413 45.7601 3.74148 45.6358C3.86574 45.5115 3.94167 45.3459 3.94167 45.1594L3.94857 45.1663ZM46.6443 21.0436V15.1406C46.6443 14.6711 46.451 14.2431 46.1472 13.9393C45.8366 13.6286 45.4155 13.4422 44.9461 13.4422H39.044C38.5745 13.4422 38.1465 13.6355 37.8428 13.9393C37.5322 14.25 37.3458 14.6711 37.3458 15.1406V21.0436C37.3458 21.513 37.5391 21.9411 37.8428 22.2449C38.1535 22.5556 38.5745 22.742 39.044 22.742H44.9461C45.4155 22.742 45.8366 22.5487 46.1472 22.2449C46.451 21.9411 46.6443 21.513 46.6443 21.0436ZM46.6443 7.81539V1.91242C46.6443 1.44295 46.451 1.0149 46.1472 0.711118C45.8435 0.407339 45.4155 0.214026 44.9461 0.214026H39.044C38.5745 0.214026 38.1535 0.407339 37.8428 0.711118C37.5322 1.0218 37.3458 1.44295 37.3458 1.91242V7.81539C37.3458 8.28487 37.5391 8.71292 37.8428 9.0167C38.1535 9.32738 38.5745 9.51379 39.044 9.51379H44.9461C45.4155 9.51379 45.8435 9.32048 46.1472 9.0167C46.4579 8.70602 46.6443 8.28487 46.6443 7.81539Z" fill="#C71F2E"/>
<path d="M300.521 28.9531V0.627218H316.757C319.532 0.627218 321.702 1.32653 323.274 2.71795C324.853 4.10938 325.639 6.03431 325.639 8.49994C325.639 10.5618 325.026 12.3137 323.793 13.77C322.56 15.2336 320.938 16.1419 318.912 16.5024L325.999 28.9459H322.099L315.012 16.5529H304.032V28.9459H300.521V28.9531ZM304.032 13.2437H316.533C318.314 13.2437 319.662 12.8472 320.571 12.0614C321.493 11.2756 321.948 10.1221 321.948 8.60086C321.948 7.10851 321.493 5.95499 320.571 5.1259C319.662 4.29682 318.372 3.87868 316.706 3.87868H304.032V13.2437ZM269.124 28.9531V0.627218H291.394V3.88588H272.635V12.1984H283.975V15.4571H272.635V25.6944H292.547V28.9531H269.124ZM234.05 28.9531V0.627218H235.896L254.273 21.8014V0.627218H257.812V28.9531H256.017L237.561 7.779V28.9531H234.05ZM210.273 29.6957C206.034 29.6957 202.53 28.2971 199.762 25.4998C197.001 22.7025 195.617 19.1555 195.617 14.8587C195.617 10.5474 197.001 6.99317 199.776 4.1959C202.545 1.39864 206.049 0 210.266 0C214.512 0 218.023 1.39863 220.814 4.21031C223.611 7.01479 225.002 10.5618 225.002 14.8515C225.002 19.1555 223.611 22.7025 220.835 25.4926C218.052 28.2971 214.541 29.6957 210.273 29.6957ZM210.273 26.3866C213.453 26.3866 216.091 25.2979 218.182 23.1279C220.266 20.9578 221.311 18.1966 221.311 14.8587C221.311 11.5135 220.266 8.74505 218.189 6.57501C216.113 4.40497 213.467 3.31635 210.273 3.31635C207.094 3.31635 204.455 4.41217 202.365 6.58942C200.281 8.77388 199.236 11.5279 199.236 14.8587C199.236 18.1966 200.281 20.9578 202.365 23.1279C204.463 25.2979 207.094 26.3866 210.273 26.3866ZM166.087 28.9531V0.576747H169.598V14.7145L185.848 0.576747H190.462L179.013 10.6556L192.206 28.9531H187.946L176.468 13.0995L169.59 18.8743V28.9531H166.087ZM154.097 19.9197L156.916 22.0248C155.619 24.4833 153.831 26.3866 151.581 27.7059C149.325 29.0252 146.758 29.6957 143.882 29.6957C139.635 29.6957 136.139 28.2971 133.37 25.4998C130.609 22.7025 129.225 19.1555 129.225 14.8587C129.225 10.5474 130.609 6.99317 133.385 4.1959C136.153 1.39864 139.657 0 143.874 0C146.491 0 148.878 0.56955 151.033 1.71585C153.189 2.86215 154.948 4.49869 156.296 6.61826L153.348 8.72343C152.454 7.03642 151.178 5.70266 149.505 4.7438C147.825 3.79216 145.951 3.30913 143.882 3.30913C140.702 3.30913 138.064 4.40497 135.973 6.58223C133.889 8.76669 132.844 11.5207 132.844 14.8515C132.844 18.1894 133.889 20.9507 135.973 23.1207C138.064 25.2907 140.702 26.3794 143.882 26.3794C146.109 26.3794 148.077 25.8314 149.815 24.7356C151.538 23.6398 152.965 22.0393 154.097 19.9197ZM99.9256 28.9531V0.627218H122.203V3.88588H103.444V12.1984H114.784V15.4571H103.444V25.6944H123.356V28.9531H99.9256ZM65.5293 28.9531V0.627218H81.765C84.5406 0.627218 86.7106 1.32653 88.2823 2.71795C89.8612 4.10938 90.647 6.03431 90.647 8.49994C90.647 10.5618 90.0342 12.3137 88.8014 13.77C87.5686 15.2336 85.9465 16.1419 83.9206 16.5024L91.0075 28.9459H87.1072L80.0203 16.5529H69.0331V28.9459H65.5293V28.9531ZM69.0475 13.2437H81.5487C83.3294 13.2437 84.6776 12.8472 85.586 12.0614C86.5016 11.2756 86.963 10.1221 86.963 8.60086C86.963 7.10851 86.5088 5.95499 85.586 5.1259C84.6776 4.29682 83.3871 3.87868 81.7217 3.87868H69.0475V13.2437Z" fill="#202020"/>
<path d="M321.944 46.6321V40.6308H318.898V39.8504H325.894V40.6308H322.841V46.6321H321.944ZM304.368 46.6321V39.8504H304.842L309.539 44.9165V39.8504H310.444V46.6321H309.985L305.266 41.566V46.6321H304.368ZM288.94 46.6321V39.8504H294.636V40.6308H289.838V42.6223H292.74V43.4027H289.838V45.8517H294.93V46.6321H288.94ZM271.214 46.6321V39.8504H272.047L274.97 44.0015L277.915 39.8504H278.734V46.6321H277.843V41.3373L274.97 45.3471L272.097 41.3373V46.6321H271.214ZM255.829 46.6321V39.8504H261.525V40.6308H256.727V42.6223H259.628V43.4027H256.727V45.8517H261.819V46.6321H255.829ZM244.983 44.7954V43.7997H243.008V43.0192H245.881V45.0578C245.529 45.6229 245.077 46.0535 244.509 46.3563C243.949 46.659 243.31 46.807 242.599 46.807C241.514 46.807 240.616 46.4707 239.913 45.8046C239.209 45.1318 238.857 44.2841 238.857 43.2547C238.857 42.2254 239.209 41.3709 239.92 40.7048C240.631 40.0388 241.521 39.7024 242.599 39.7024C243.267 39.7024 243.877 39.837 244.43 40.1128C244.983 40.3886 245.429 40.7789 245.773 41.2902L245.019 41.7948C244.789 41.3911 244.459 41.0682 244.035 40.8394C243.604 40.6107 243.13 40.4963 242.599 40.4963C241.787 40.4963 241.112 40.7587 240.581 41.2835C240.042 41.8082 239.776 42.4676 239.776 43.2615C239.776 44.0621 240.042 44.7214 240.581 45.2395C241.112 45.7575 241.787 46.0199 242.599 46.0199C243.109 46.0199 243.561 45.919 243.956 45.7104C244.351 45.5018 244.696 45.1991 244.983 44.7954ZM222.588 46.6321L226.137 39.8504H226.884L230.468 46.6321H229.491L228.507 44.8089H224.506L223.551 46.6321H222.588ZM224.93 44.015H228.119L226.517 41.0143L224.93 44.015ZM207.354 46.6321V39.8504H207.828L212.526 44.9165V39.8504H213.431V46.6321H212.971L208.252 41.566V46.6321H207.354ZM190.282 46.6321L193.83 39.8504H194.577L198.168 46.6321H197.191L196.207 44.8089H192.207L191.251 46.6321H190.282ZM192.616 44.015H195.805L194.203 41.0143L192.616 44.015ZM173.64 46.6321V39.8504H174.473L177.396 44.0015L180.341 39.8504H181.16V46.6321H180.269V41.3373L177.396 45.3471L174.523 41.3373V46.6321H173.64ZM154.398 46.6321V39.8504H155.296V45.8517H160.022V46.6321H154.398ZM137.318 46.6321L140.866 39.8504H141.613L145.204 46.6321H144.228L143.244 44.8089H139.243L138.288 46.6321H137.318ZM139.652 44.015H142.841L141.24 41.0143L139.652 44.015ZM126.71 46.6321V40.6308H123.664V39.8504H130.66V40.6308H127.607V46.6321H126.71ZM114.27 46.6321V39.81H115.182V46.6321H114.27ZM98.2526 46.6321V39.8504H102.404C103.108 39.8504 103.661 40.0119 104.07 40.3416C104.473 40.6712 104.681 41.1153 104.681 41.6871C104.681 42.2792 104.487 42.7569 104.092 43.1202C103.697 43.4835 103.18 43.6651 102.526 43.6651H99.1576V46.6321H98.2526ZM99.1504 42.8712H102.347C102.799 42.8712 103.144 42.777 103.381 42.5887C103.618 42.4003 103.733 42.1244 103.733 41.7611C103.733 41.4045 103.618 41.1287 103.381 40.9269C103.151 40.725 102.821 40.6308 102.39 40.6308H99.1504V42.8712ZM81.2158 46.6321L84.764 39.8504H85.5109L89.1022 46.6321H88.1254L87.1414 44.8089H83.1407L82.1855 46.6321H81.2158ZM83.5501 44.015H86.7391L85.1375 41.0143L83.5501 44.015ZM71.8858 44.4658L72.604 44.9703C72.2736 45.5624 71.814 46.0132 71.2394 46.3294C70.6648 46.6456 70.004 46.807 69.2714 46.807C68.1868 46.807 67.289 46.4707 66.5851 45.8046C65.8812 45.1318 65.5293 44.2841 65.5293 43.2547C65.5293 42.2254 65.8812 41.3709 66.5923 40.7048C67.3034 40.0388 68.194 39.7024 69.2714 39.7024C69.9394 39.7024 70.5499 39.837 71.1029 40.1128C71.656 40.3886 72.1013 40.7789 72.446 41.2902L71.6919 41.7948C71.462 41.3911 71.1388 41.0682 70.7079 40.8394C70.2769 40.6107 69.7957 40.4963 69.2714 40.4963C68.4598 40.4963 67.7846 40.7587 67.2531 41.2835C66.7216 41.8082 66.4558 42.4676 66.4558 43.2615C66.4558 44.0621 66.7216 44.7214 67.2531 45.2395C67.7918 45.7575 68.4598 46.0199 69.2714 46.0199C69.8388 46.0199 70.3416 45.8853 70.7869 45.623C71.2322 45.3606 71.5913 44.9771 71.8858 44.4658Z" fill="#202020"/>
</svg>
